<?xml version="1.0" encoding="utf-8"?>
<svg width="91" height="42" viewBox="0 0 91 42" fill="none" xmlns="http://www.w3.org/2000/svg" xmlns:bx="https://boxy-svg.com"><g clip-path="url(#clip0_294_4655)" style="" transform="matrix(2.16257, 0, 0, 2.613995, -105.79384, -66.272721)"><path d="M59.7375 40.8335C60.1273 40.8335 60.4271 40.7375 60.631 40.5397C60.9727 40.1979 61.1526 39.8321 61.1706 39.4423V33.7279H53.9091V39.4184C53.9091 39.8081 54.053 40.1379 54.3348 40.4137C54.6167 40.6896 54.9524 40.8275 55.3422 40.8275H55.612L55.636 41.0494H48.8242V40.8275H49.118C49.5078 40.8275 49.8376 40.6896 50.1134 40.4137C50.3893 40.1379 50.5332 39.8081 50.5512 39.4184V27.006C50.5332 26.6162 50.3893 26.2864 50.1134 26.0106C49.8376 25.7348 49.5018 25.5969 49.118 25.5969H48.8242V25.375H55.636L55.612 25.5969H55.3422C54.9524 25.5969 54.6167 25.7348 54.3348 26.0106C54.053 26.2864 53.9091 26.6222 53.9091 27.006V32.7685H61.1706V27.006C61.1526 26.6162 61.0087 26.2864 60.7329 26.0106C60.4571 25.7348 60.1213 25.5969 59.7375 25.5969H59.4437V25.375H66.2555V25.5969H65.9617C65.5719 25.5969 65.2361 25.7348 64.9543 26.0106C64.6725 26.2864 64.5286 26.6222 64.5286 27.006V39.4184C64.5286 39.8081 64.6725 40.1379 64.9543 40.4137C65.2361 40.6896 65.5719 40.8275 65.9617 40.8275H66.2555V41.0494H59.4437V40.8275H59.7375V40.8335Z" fill="#044C7F"/><path d="M76.5815 41.0555H74.7466C72.474 41.0555 70.867 40.4379 69.9256 39.1966C67.2512 35.5689 65.9141 33.662 65.9141 33.662L71.2268 26.6224C71.3467 26.4725 71.4067 26.3405 71.4067 26.2206C71.4067 26.1007 71.3827 25.9988 71.3407 25.9088C71.2208 25.6869 71.0109 25.573 70.7111 25.573H70.4893V25.3691H75.6221V25.573H75.5321C74.5308 25.573 73.7153 25.9328 73.0916 26.6464L68.7203 31.8212L74.3029 39.4425C74.9925 40.3359 75.754 40.8036 76.5875 40.8336V41.0555H76.5815Z" fill="#CD181E"/><path d="M84.6832 41.0554H77.6016V40.8335H77.8954C78.435 40.8335 78.8428 40.5996 79.1306 40.1379C79.2505 39.928 79.3165 39.7002 79.3345 39.4423V26.982C79.3165 26.5923 79.1726 26.2625 78.8968 25.9986C78.6209 25.7288 78.2851 25.5969 77.9014 25.5969H77.6076V25.375H84.1076C85.8405 25.375 87.2196 25.6868 88.245 26.3164C89.2704 26.946 89.7861 27.9054 89.804 29.2066C89.7861 29.8662 89.6481 30.4419 89.3783 30.9336C88.8866 31.863 88.1071 32.3907 87.0458 32.5226C88.197 32.6245 89.1445 33.0563 89.894 33.8118C90.6435 34.5673 91.0153 35.5268 91.0153 36.69C91.0153 38.0932 90.4517 39.1725 89.3244 39.928C88.197 40.6836 86.656 41.0613 84.6952 41.0613L84.6832 41.0554ZM86.2063 29.4945C86.1883 27.3898 85.2349 26.3344 83.34 26.3344H82.6924V40.03H83.7658C84.7971 40.03 85.6186 39.7302 86.2303 39.1365C86.8419 38.5369 87.1477 37.6255 87.1477 36.4022C87.1477 35.179 86.8059 34.2675 86.1163 33.6679C85.4267 33.0683 84.5393 32.7744 83.448 32.7744V32.5706C84.2275 32.5706 84.8751 32.3187 85.3968 31.821C85.9184 31.3233 86.1883 30.5498 86.2063 29.5005V29.4945Z" fill="#044C7F"/></g><defs><clipPath id="clip0_294_4655"><rect width="91" height="40.1273" fill="white" transform="translate(0 0.935547)"/></clipPath><bx:export><bx:file format="svg"/></bx:export></defs></svg>